<svg xmlns="http://www.w3.org/2000/svg" viewBox="539.523 334.465 200.73 15">
  <defs>
    <style>
      .cls-1 {
        fill: #333;
      }
    </style>
  </defs>
  <path id="Path_15" data-name="Path 15" class="cls-1" d="M-97.162-11.19a3.345,3.345,0,0,0-3.315,3.36v4.575A3.335,3.335,0,0,0-97.162.06a3.342,3.342,0,0,0,3.345-3.315V-7.83A3.351,3.351,0,0,0-97.162-11.19Zm0,9.315a1.33,1.33,0,0,1-1.38-1.38V-7.83a1.432,1.432,0,0,1,1.38-1.41,1.448,1.448,0,0,1,1.41,1.41v4.575A1.433,1.433,0,0,1-97.162-1.875ZM-86.422-8.4h-1.935v5.55a1.04,1.04,0,0,1-1.05.975,1.006,1.006,0,0,1-1.035-.975V-8.4h-1.95v5.55A2.662,2.662,0,0,0-89.812.06a2.081,2.081,0,0,0,1.455-.6V0h1.935Zm6.03,0h-.825a2.133,2.133,0,0,0-1.455.585V-8.4h-1.95V0h1.95V-5.07a1.47,1.47,0,0,1,1.455-1.395h.825Zm8.055-.075a2.116,2.116,0,0,0-1.47.6V-8.4h-1.95V0h1.95V-5.565a1.037,1.037,0,0,1,1.05-.96.985.985,0,0,1,1.035.96V0h1.95V-5.565A2.678,2.678,0,0,0-72.337-8.475Zm6.99,0a2.916,2.916,0,0,0-2.925,2.91V-2.85A2.751,2.751,0,0,0-65.437.06a2.991,2.991,0,0,0,3-2.91h-1.875a.983.983,0,0,1-1.035,1.035.946.946,0,0,1-.975-1.035v-.78h3.885V-5.565A2.913,2.913,0,0,0-65.347-8.475Zm1.035,3.225h-2.01v-.315a.979.979,0,0,1,.975-1.065,1.016,1.016,0,0,1,1.035,1.065Zm13.53-3.15h-1.95L-53.9-3.315-55.087-8.4h-2.22l-1.185,5.085L-59.662-8.4h-1.95l1.95,8.4h2.22L-56.2-5.4-54.952,0h2.22Zm14.73,0H-38l-1.17,5.085L-40.357-8.4h-2.22l-1.185,5.085L-44.932-8.4h-1.95l1.95,8.4h2.22l1.245-5.4L-40.222,0H-38Zm3.75-.075a2.916,2.916,0,0,0-2.925,2.91V-2.85A2.751,2.751,0,0,0-32.392.06a2.991,2.991,0,0,0,3-2.91h-1.875A.983.983,0,0,1-32.3-1.815a.946.946,0,0,1-.975-1.035v-.78h3.885V-5.565A2.913,2.913,0,0,0-32.3-8.475Zm1.035,3.225h-2.01v-.315A.979.979,0,0,1-32.3-6.63a1.016,1.016,0,0,1,1.035,1.065Zm9.36-.315a2.6,2.6,0,0,0-2.505-2.91,1.964,1.964,0,0,0-1.38.555v-3.615h-1.95V0h1.95V-.5a1.964,1.964,0,0,0,1.38.555,2.6,2.6,0,0,0,2.505-2.91Zm-2.91,3.69a.973.973,0,0,1-.975-.975V-5.565a.96.96,0,0,1,.975-.96.967.967,0,0,1,.96.96V-2.85A.98.98,0,0,1-24.817-1.875Zm7.6-3.825h1.95v-.21a2.64,2.64,0,0,0-2.685-2.565,2.655,2.655,0,0,0-2.685,2.6,2.186,2.186,0,0,0,1.4,2.085c1.29.585,1.965.915,1.965,1.41a.6.6,0,0,1-.66.57.712.712,0,0,1-.75-.765v-.195h-1.95v.195A2.5,2.5,0,0,0-17.932,0a2.485,2.485,0,0,0,2.67-2.595A2.512,2.512,0,0,0-16.9-4.9c-.975-.5-1.71-.735-1.71-1.185a.643.643,0,0,1,.66-.585.708.708,0,0,1,.735.765Zm4.335-5.835a1.191,1.191,0,0,0-1.185,1.2,1.175,1.175,0,0,0,1.185,1.17,1.188,1.188,0,0,0,1.2-1.17A1.2,1.2,0,0,0-12.877-11.535ZM-11.9,0V-8.4h-1.95V0Zm5.775-1.95H-7.1a.993.993,0,0,1-.975-.975V-6.66h1.665V-8.415H-8.077v-2.16h-1.95v2.16h-.825V-6.66h.825V-2.5A2.371,2.371,0,0,0-7.387,0h1.26Zm3.9-6.525a2.916,2.916,0,0,0-2.925,2.91V-2.85A2.751,2.751,0,0,0-2.317.06a2.991,2.991,0,0,0,3-2.91H-1.192A.983.983,0,0,1-2.227-1.815.946.946,0,0,1-3.2-2.85v-.78H.683V-5.565A2.913,2.913,0,0,0-2.227-8.475ZM-1.192-5.25H-3.2v-.315A.979.979,0,0,1-2.227-6.63,1.016,1.016,0,0,1-1.192-5.565Zm8.235-6.285a1.191,1.191,0,0,0-1.185,1.2,1.175,1.175,0,0,0,1.185,1.17,1.188,1.188,0,0,0,1.2-1.17A1.2,1.2,0,0,0,7.043-11.535ZM8.018,0V-8.4H6.068V0Zm4.845-5.7h1.95v-.21a2.64,2.64,0,0,0-2.685-2.565,2.655,2.655,0,0,0-2.685,2.6,2.186,2.186,0,0,0,1.4,2.085c1.29.585,1.965.915,1.965,1.41a.6.6,0,0,1-.66.57.712.712,0,0,1-.75-.765v-.195H9.443v.195A2.5,2.5,0,0,0,12.143,0a2.485,2.485,0,0,0,2.67-2.595A2.512,2.512,0,0,0,13.178-4.9c-.975-.5-1.71-.735-1.71-1.185a.643.643,0,0,1,.66-.585.708.708,0,0,1,.735.765Zm10.86.435h1.95v-.3a2.913,2.913,0,0,0-2.91-2.91,2.914,2.914,0,0,0-2.925,2.85v2.85A2.921,2.921,0,0,0,22.763.06a2.913,2.913,0,0,0,2.91-2.91v-.3h-1.95v.3a.951.951,0,0,1-.96.975.973.973,0,0,1-.975-.975V-5.565a.97.97,0,0,1,.975-.96.948.948,0,0,1,.96.96Zm9.135-.285h-.015a2.913,2.913,0,0,0-2.91-2.91,2.913,2.913,0,0,0-2.91,2.91v2.64A2.916,2.916,0,0,0,29.933.015a2.916,2.916,0,0,0,2.91-2.925h.015ZM30.923-2.91h-.015a.964.964,0,0,1-.975.975.973.973,0,0,1-.975-.975V-5.55a.98.98,0,0,1,.975-.96.96.96,0,0,1,.975.96h.015Zm10.89-5.565a2.786,2.786,0,0,0-1.98.9,2.518,2.518,0,0,0-1.92-.9,2.081,2.081,0,0,0-1.455.6v-.54h-1.95V0h1.95V-5.565a1.023,1.023,0,0,1,1.035-.96,1,1,0,0,1,1.05.96V0h1.95V-5.595a1.019,1.019,0,0,1,1.035-.93.985.985,0,0,1,1.035.96V0h1.95V-5.565A2.675,2.675,0,0,0,41.813-8.475Zm5.31-3.06a1.191,1.191,0,0,0-1.185,1.2,1.175,1.175,0,0,0,1.185,1.17,1.188,1.188,0,0,0,1.2-1.17A1.2,1.2,0,0,0,47.122-11.535ZM48.1,0V-8.4h-1.95V0ZM53.3-8.475a2.116,2.116,0,0,0-1.47.6V-8.4h-1.95V0h1.95V-5.565a1.037,1.037,0,0,1,1.05-.96.985.985,0,0,1,1.035.96V0h1.95V-5.565A2.678,2.678,0,0,0,53.3-8.475Zm9.9.075h-1.95v.48a1.964,1.964,0,0,0-1.38-.555,2.6,2.6,0,0,0-2.505,2.91v2.64C57.323-1.125,58.208,0,59.723,0a2.222,2.222,0,0,0,1.53-.63V.555a.968.968,0,1,1-1.935,0h-1.95a2.918,2.918,0,0,0,5.835,0ZM60.278-1.95a.98.98,0,0,1-.96-.975v-2.64a.967.967,0,0,1,.96-.96.96.96,0,0,1,.975.96v2.64A.973.973,0,0,1,60.278-1.95ZM71.8-5.7h1.95v-.21a2.64,2.64,0,0,0-2.685-2.565,2.655,2.655,0,0,0-2.685,2.6,2.186,2.186,0,0,0,1.395,2.085c1.29.585,1.965.915,1.965,1.41a.6.6,0,0,1-.66.57.712.712,0,0,1-.75-.765v-.195h-1.95v.195A2.5,2.5,0,0,0,71.078,0a2.485,2.485,0,0,0,2.67-2.595A2.512,2.512,0,0,0,72.113-4.9c-.975-.5-1.71-.735-1.71-1.185a.643.643,0,0,1,.66-.585.708.708,0,0,1,.735.765Zm9.06.15h-.015a2.913,2.913,0,0,0-2.91-2.91,2.913,2.913,0,0,0-2.91,2.91v2.64A2.916,2.916,0,0,0,77.933.015a2.916,2.916,0,0,0,2.91-2.925h.015ZM78.923-2.91h-.015a.964.964,0,0,1-.975.975.973.973,0,0,1-.975-.975V-5.55a.98.98,0,0,1,.975-.96.96.96,0,0,1,.975.96h.015Zm9.27-2.64h-.015a2.913,2.913,0,0,0-2.91-2.91,2.913,2.913,0,0,0-2.91,2.91v2.64A2.916,2.916,0,0,0,85.268.015a2.916,2.916,0,0,0,2.91-2.925h.015ZM86.257-2.91h-.015a.964.964,0,0,1-.975.975.973.973,0,0,1-.975-.975V-5.55a.98.98,0,0,1,.975-.96.96.96,0,0,1,.975.96h.015Zm6.99-5.565a2.116,2.116,0,0,0-1.47.6V-8.4h-1.95V0h1.95V-5.565a1.037,1.037,0,0,1,1.05-.96.985.985,0,0,1,1.035.96V0h1.95V-5.565A2.678,2.678,0,0,0,93.248-8.475Zm4.635-3.06v8.07h1.95v-8.07Zm.975,8.76a1.428,1.428,0,0,0-1.395,1.53A1.381,1.381,0,0,0,98.857,0a1.4,1.4,0,0,0,1.4-1.395A1.389,1.389,0,0,0,98.857-2.775Z" transform="translate(640 346)"/>
</svg>
