<svg xmlns="http://www.w3.org/2000/svg" viewBox="570 213.813 140.794 103.187">
  <defs>
    <style>
      .cls-1 {
        fill: #2d2d2d;
      }
    </style>
  </defs>
  <g id="Group_3" data-name="Group 3" transform="translate(570.2 213.813)">
    <path id="Path_1" data-name="Path 1" class="cls-1" d="M-.114,47.486c.173-1.339.3-2.679.518-4.018.13-.864.3-1.772.432-2.636h.346c.259,2.592.518,5.185.735,7.777a13.013,13.013,0,0,1,.043,2.247c0,.475.173.648.648.648,5.876-.259,11.709-.475,17.586-.735a2.12,2.12,0,0,0,.475-.043c.13-1.6.216-3.154.346-4.71a51.736,51.736,0,0,1,10.24-26.184,3.843,3.843,0,0,1,1.772-.907,6.977,6.977,0,0,1,1.426-.13,1.325,1.325,0,0,1-.043.562c-.3.821-.691,1.642-.994,2.463-.3.864-.259.907.562.821a49.2,49.2,0,0,0-9.419,28.042q45.628-1.1,91.472,0c-.432-12.962-4.969-24.024-13.783-33.054A44.17,44.17,0,0,0,54.8,6.827c-.3-.691-.691-.951-1.426-.432a.921.921,0,0,1-.994-.086c-.562-.6-1.037-.3-1.555-.043a2.093,2.093,0,0,1-.735,0,1.49,1.49,0,0,1,.346-.691c.864-.735,1.772-1.426,2.679-2.117a3.831,3.831,0,0,1,1.08-.6A46.678,46.678,0,0,1,66.3.173,1.228,1.228,0,0,0,66.816,0h7.043c1.167.173,2.29.346,3.457.518,20.524,2.895,37.548,19.617,41.523,40.832.562,3.068.821,6.222,1.21,9.376,6.006.216,12.185.475,18.493.735a51.947,51.947,0,0,1,.994-10.586c1.426,3.2,1.426,17.456-.086,21.345-.216-1.728-.475-3.457-.648-5.185s-.173-3.457-.3-5.315c-6.179.259-12.4.475-18.623.735-.6,15.944-6.654,29.122-18.493,39.233a46.592,46.592,0,0,1-31.8,11.493c-27.394-.432-48.566-23.505-49-50.726C14.4,52.2,8.226,51.98,2.09,51.72c-.3,3.543-.648,7.043-.951,10.586H.751C.578,61.442.4,60.621.318,59.757L-.2,55.739C-.114,52.973-.114,50.208-.114,47.486ZM24.645,52.5a47.691,47.691,0,0,0,21.042,39.19,43.844,43.844,0,0,0,50.6-.994C108.9,81.448,115.3,68.615,116.117,52.5,85.482,53.233,55.063,53.189,24.645,52.5Z"/>
    <g id="Group_1" data-name="Group 1" transform="translate(41.712 19.703)">
      <path id="Path_2" data-name="Path 2" class="cls-1" d="M116.028,73.785h-4.753c-.821-5.1-1.6-10.2-2.42-15.253h-.173c-.778,5.055-1.6,10.154-2.42,15.253h-4.8c-1.555-9.376-3.111-18.666-4.666-28.042h4.45c.864,5.617,1.772,11.277,2.636,16.894h.173c.821-5.617,1.642-11.191,2.463-16.851h4.494c.821,5.66,1.642,11.321,2.506,16.981h.13c.864-5.444,1.728-10.888,2.549-16.333.086-.562.216-.735.778-.735,1.253.043,2.506,0,3.8,0C119.139,55.076,117.583,64.409,116.028,73.785Z" transform="translate(-96.8 -45.657)"/>
      <path id="Path_3" data-name="Path 3" class="cls-1" d="M163.2,45.743q3.046,14,6.136,28h-4.45c-.475-2.117-.907-4.191-1.383-6.265-.043-.259-.3-.648-.475-.648-1.988-.043-3.975-.043-5.963-.043-.519,2.333-.994,4.58-1.512,6.913H151.1c2.031-9.333,4.062-18.623,6.092-28C159.137,45.743,161.124,45.743,163.2,45.743Zm-2.981,6.913h-.13c-.691,3.154-1.383,6.352-2.074,9.549h4.278C161.643,58.965,160.908,55.811,160.217,52.657Z" transform="translate(-127.638 -45.657)"/>
      <path id="Path_4" data-name="Path 4" class="cls-1" d="M207.533,45.643c-.259.778-.519,1.469-.778,2.2-1.642,4.666-3.327,9.29-4.969,13.956a5.157,5.157,0,0,0-.259,1.6c-.043,3.111,0,6.222,0,9.333v.994H197.12V70.186c0-2.549.3-5.185-.13-7.648s-1.6-4.8-2.42-7.216c-1.037-2.981-2.117-6.006-3.154-8.987a5.659,5.659,0,0,1-.216-.648h4.753c1.08,3.241,2.2,6.568,3.37,10.068.173-.432.3-.735.389-.994.951-2.809,1.9-5.574,2.852-8.382.173-.562.389-.778.994-.778C204.811,45.686,206.107,45.643,207.533,45.643Z" transform="translate(-150.411 -45.6)"/>
    </g>
    <path id="Path_5" data-name="Path 5" class="cls-1" d="M97.238,20.628a4.94,4.94,0,0,1-5.055,5.1,5.01,5.01,0,0,1-4.883-5.1A5.121,5.121,0,0,1,92.312,15.4,5.024,5.024,0,0,1,97.238,20.628Z" transform="translate(-49.693 -8.746)"/>
    <g id="Group_2" data-name="Group 2" transform="translate(41.762 55.004)">
      <path id="Path_6" data-name="Path 6" class="cls-1" d="M207.062,142.509v6.265a8.53,8.53,0,0,1-8.253,8.728c-4.45,0-8.166-3.932-8.21-8.685V136.071c0-4.8,3.716-8.771,8.21-8.771s8.21,3.932,8.253,8.728Zm-4.883-2.981c-.13.173-.216.216-.259.3-1.728,3.716-3.457,7.475-5.228,11.191-.216.432,0,.6.3.821a3.382,3.382,0,0,0,5.1-2.679C202.309,146.009,202.18,142.812,202.18,139.528Zm-1.383-6.222a3.056,3.056,0,0,0-2.592-.691,3.811,3.811,0,0,0-2.809,4.018c-.043,2.42,0,4.839,0,7.259a4.55,4.55,0,0,0,.13.778C197.34,140.738,199.026,137.022,200.8,133.306Z" transform="translate(-150.121 -127.3)"/>
      <path id="Path_7" data-name="Path 7" class="cls-1" d="M160.249,136.824H155.5a14.586,14.586,0,0,0-.432-1.469,3.506,3.506,0,0,0-3.543-2.247,3.773,3.773,0,0,0-3.025,3.413c-.043.994-.043,2.031-.043,3.068v.907a18.983,18.983,0,0,1,2.981-.562c4.148-.216,7.518,2.506,8.555,6.827,1.037,4.407-1.21,9.074-5.185,10.586-5.271,2.074-11.061-2.031-11.148-7.907q-.065-6.546,0-13.092c.043-4.321,3.586-8.21,7.561-8.469a8.4,8.4,0,0,1,8.858,7.389C160.12,135.7,160.163,136.176,160.249,136.824Zm-11.8,12.055a3.546,3.546,0,0,0,3.457,3.673,3.685,3.685,0,0,0,3.413-3.673,3.774,3.774,0,0,0-3.457-3.759A3.648,3.648,0,0,0,148.454,148.879Z" transform="translate(-123.443 -127.621)"/>
      <path id="Path_8" data-name="Path 8" class="cls-1" d="M111.557,142.651a9.823,9.823,0,0,1,.043,11.8A7.875,7.875,0,0,1,102.224,157a8.694,8.694,0,0,1-5.185-8.339H101.4a18.557,18.557,0,0,0,1.772,2.809,3.026,3.026,0,0,0,3.932.3,3.772,3.772,0,0,0,1.426-3.975,3.446,3.446,0,0,0-3.111-2.592c-.648-.043-1.339,0-2.031,0v-5.228c.648,0,1.339.043,1.988,0a3.457,3.457,0,0,0,3.284-3.241,3.6,3.6,0,0,0-2.765-3.846,3.092,3.092,0,0,0-3.586,2.463q-.13.519-.259,1.167H97c-.519-2.679,1.555-6.481,4.45-8.08a7.847,7.847,0,0,1,9.506,1.556C114.106,133.275,114.279,137.422,111.557,142.651Z" transform="translate(-96.916 -127.398)"/>
    </g>
  </g>
</svg>
